:SAMPLES-PER-SECOND 30
:FULLY-SPECIFIED
:DEGREES
177
root  60.6085 17.8049 2.61992 136.736 76.61 84.4166
RightUpLeg  -13.6591 2.4192 -4.44136
RightLeg  63.4092 16.1348 11.8761
RightFoot  16.253 0.867731 -3.36306
RightToes  1.86264e-009 -3.18055e-015 8.94531e-016
Spine  50.27 -4.86118 -13.154
Spine1  -26.6599 -10.6009 6.92438
HEad  -52.9161 8.28619 10.7185
LeftShoulder1  0 -2.69403e-036 -1.28585e-037
LeftArm  22.2234 -40.048 -67.0027
LeftForeArm  -6.93069 -31.0769 21.6012
LeftHand  -2.3256 0.129134 33.5606
RightShoulder  -2.48481e-017 0 -8.08114e-019
RightArm  -0.924608 25.588 102.836
RightForeArm  22.257 10.1041 -2.5403
RightHand  8.42333 -20.9071 -44.3998
LeftUpLeg  -55.9144 -16.079 -8.21591
LeftLeg  108.304 -8.71005 -14.1219
LeftFoot  21.7973 -0.953134 3.21608
LeftToes  -3.27418e-010 -1.10613e-010 -1.08532e-012
178
root  61.1828 18.0757 2.39446 132.872 78.772 79.6631
RightUpLeg  -16.45 3.71947 -4.01063
RightLeg  64.7059 15.6678 11.5239
RightFoot  17.9664 0.404458 -1.43803
RightToes  1.86264e-009 -3.18055e-015 8.94531e-016
Spine  50.9574 -4.01245 -13.8195
Spine1  -27.7471 -9.81002 8.51208
HEad  -52.9889 9.78601 10.0867
LeftShoulder1  0 -2.69403e-036 -1.28585e-037
LeftArm  19.144 -47.6454 -63.7033
LeftForeArm  -8.38086 -24.7727 16.8062
LeftHand  -2.16214 0.300341 32.4301
RightShoulder  -2.48481e-017 0 -8.08114e-019
RightArm  0.946448 24.8898 104.788
RightForeArm  22.9929 10.1773 -2.0538
RightHand  8.64586 -21.0868 -45.1383
LeftUpLeg  -55.2325 -14.8564 -7.43677
LeftLeg  106.713 -8.95739 -14.5336
LeftFoot  20.2933 -1.10054 3.84617
LeftToes  -3.27418e-010 -1.10613e-010 -1.08532e-012
179
root  61.8378 18.4071 2.15115 126.58 81.8094 72.7734
RightUpLeg  -20.1624 3.83655 -2.97337
RightLeg  68.0789 13.9773 8.98979
RightFoot  13.9481 0.24264 -1.02767
RightToes  1.86264e-009 -3.18055e-015 8.94531e-016
Spine  51.5463 -3.33963 -12.992
Spine1  -28.5001 -8.66903 8.7061
HEad  -52.6467 10.6276 9.50885
LeftShoulder1  0 -2.69403e-036 -1.28585e-037
LeftArm  6.57662 -54.135 -60.6394
LeftForeArm  1.0313 -18.2293 9.61789
LeftHand  -1.78688 0.678379 29.4014
RightShoulder  -2.48481e-017 0 -8.08114e-019
RightArm  1.67677 24.1636 106.051
RightForeArm  24.0424 9.89177 -1.47378
RightHand  8.8322 -21.2244 -45.7821
LeftUpLeg  -53.8733 -12.8213 -6.15148
LeftLeg  104.652 -9.60611 -13.8967
LeftFoot  18.6394 -1.12209 4.10118
LeftToes  -3.27418e-010 -1.10613e-010 -1.08532e-012
180
root  62.5555 18.7339 1.87138 113.683 85.0367 59.4379
RightUpLeg  -24.7778 3.27272 -1.49703
RightLeg  73.6155 12.2336 5.7024
RightFoot  7.46789 0.347941 -1.97498
RightToes  1.86264e-009 -3.18055e-015 8.94531e-016
Spine  51.9391 -3.0125 -10.7523
Spine1  -28.9741 -7.38725 7.85465
HEad  -52.4878 10.7079 8.4055
LeftShoulder1  0 -2.69403e-036 -1.28585e-037
LeftArm  -3.67145 -58.7877 -59.4036
LeftForeArm  8.59768 -12.4891 5.75742
LeftHand  -1.29938 1.19227 24.9894
RightShoulder  -2.48481e-017 0 -8.08114e-019
RightArm  1.19553 23.1259 106.414
RightForeArm  25.479 9.64497 -1.13767
RightHand  9.00078 -21.3449 -46.3633
LeftUpLeg  -52.118 -10.7211 -4.59705
LeftLeg  101.876 -10.4514 -12.7261
LeftFoot  18.3884 -0.93984 3.49822
LeftToes  -3.27418e-010 -1.10613e-010 -1.08532e-012
181
root  63.2694 19.0167 1.57961 76.7933 87.0687 22.2001
RightUpLeg  -30.1759 3.13151 -0.119916
RightLeg  80.862 11.3244 3.68531
RightFoot  3.70415 0.533546 -3.60061
RightToes  1.86264e-009 -3.18055e-015 8.94531e-016
Spine  52.0933 -2.6842 -8.38792
Spine1  -29.0554 -6.07864 6.59196
HEad  -52.6308 10.3857 6.95771
LeftShoulder1  0 -2.69403e-036 -1.28585e-037
LeftArm  -4.23299 -61.3408 -60.7562
LeftForeArm  7.33039 -9.02639 5.56266
LeftHand  -0.941642 1.60121 21.4932
RightShoulder  -2.48481e-017 0 -8.08114e-019
RightArm  0.189944 22.0123 106.206
RightForeArm  27.1134 9.45203 -0.997487
RightHand  9.18269 -21.4856 -46.9406
LeftUpLeg  -50.3654 -8.98981 -3.22792
LeftLeg  98.9083 -11.1513 -11.8929
LeftFoot  19.1923 -0.550125 2.08943
LeftToes  -3.27418e-010 -1.10613e-010 -1.08532e-012
182
root  63.9582 19.2233 1.28345 28.4228 86.9654 -26.3206
RightUpLeg  -36.0937 3.47699 1.08657
RightLeg  89.1643 10.9206 3.75264
RightFoot  3.3797 0.761349 -5.22588
RightToes  1.86264e-009 -3.18055e-015 8.94531e-016
Spine  52.1031 -2.30218 -6.31468
Spine1  -28.6938 -4.82653 5.25102
HEad  -52.8248 10.0436 5.89449
LeftShoulder1  0 -2.69403e-036 -1.28585e-037
LeftArm  -3.10207 -62.0814 -63.9072
LeftForeArm  6.11538 -6.94641 5.66786
LeftHand  -0.877462 1.72752 21.0961
RightShoulder  -2.48481e-017 0 -8.08114e-019
RightArm  -0.340934 21.1514 105.618
RightForeArm  28.4207 9.17725 -0.727594
RightHand  9.32642 -21.593 -47.4001
LeftUpLeg  -48.5409 -7.8245 -2.01118
LeftLeg  96.3518 -11.5703 -12.1411
LeftFoot  19.9221 -0.208509 0.899233
LeftToes  -3.27418e-010 -1.10613e-010 -1.08532e-012
183
root  64.6382 19.3202 0.984481 -1.0545 85.8528 -55.6715
RightUpLeg  -42.3248 3.41531 2.35801
RightLeg  97.8226 10.3374 4.95592
RightFoot  3.20234 0.919114 -6.40796
RightToes  1.86264e-009 -3.18055e-015 8.94531e-016
Spine  52.0257 -2.14366 -4.07973
Spine1  -27.9438 -3.72995 3.97299
HEad  -53.145 9.59054 5.43826
LeftShoulder1  0 -2.69403e-036 -1.28585e-037
LeftArm  -2.03097 -61.5635 -68.3113
LeftForeArm  7.13472 -5.499 6.04442
LeftHand  -1.05045 1.6324 23.5228
RightShoulder  -2.48481e-017 0 -8.08114e-019
RightArm  0.260345 20.5053 104.316
RightForeArm  28.6823 9.10433 -0.251733
RightHand  9.4507 -21.6887 -47.7807
LeftUpLeg  -46.4121 -7.59808 -0.734419
LeftLeg  94.2583 -11.8403 -13.5208
LeftFoot  20.2139 -0.0938595 0.515393
LeftToes  -3.27418e-010 -1.10613e-010 -1.08532e-012
184
root  65.3333 19.3188 0.709243 -16.408 85.3014 -70.5943
RightUpLeg  -48.7285 2.46515 3.63015
RightLeg  106.076 9.41593 6.11742
RightFoot  1.58668 0.947699 -7.34104
RightToes  1.86264e-009 -3.18055e-015 8.94531e-016
Spine  51.8598 -2.28032 -1.66122
Spine1  -26.8321 -2.8546 3.05099
HEad  -53.7253 8.7204 5.13185
LeftShoulder1  0 -2.69403e-036 -1.28585e-037
LeftArm  -1.17265 -60.4354 -72.7155
LeftForeArm  8.85832 -5.07218 6.54565
LeftHand  -1.28111 1.47249 26.4922
RightShoulder  -2.48481e-017 0 -8.08114e-019
RightArm  2.13516 19.7726 102.117
RightForeArm  27.4046 9.66374 0.0995063
RightHand  9.68559 -21.8992 -48.383
LeftUpLeg  -43.8757 -8.54063 0.448036
LeftLeg  92.2845 -12.173 -15.5677
LeftFoot  20.348 0.0458669 0.0549429
LeftToes  -3.27418e-010 -1.10613e-010 -1.08532e-012
185
root  66.033 19.2569 0.4814 -29.8956 85.5746 -83.1702
RightUpLeg  -55.053 1.01032 4.66624
RightLeg  113.449 8.1267 7.32881
RightFoot  -0.545806 0.912665 -8.27242
RightToes  1.86264e-009 -3.18055e-015 8.94531e-016
Spine  51.7915 -2.55433 0.535039
Spine1  -25.4592 -2.1936 2.72366
HEad  -54.2014 7.50517 4.65173
LeftShoulder1  0 -2.69403e-036 -1.28585e-037
LeftArm  0.0647535 -59.1285 -76.3261
LeftForeArm  9.27174 -5.71611 6.67701
LeftHand  -1.4889 1.26036 28.533
RightShoulder  -2.48481e-017 0 -8.08114e-019
RightArm  4.94401 18.7305 99.4377
RightForeArm  24.8813 10.7667 -0.0258863
RightHand  9.96414 -22.1377 -49.1109
LeftUpLeg  -40.765 -10.3822 1.26356
LeftLeg  90.211 -12.7032 -18.029
LeftFoot  20.5347 0.397555 -1.09413
LeftToes  -3.27418e-010 -1.10613e-010 -1.08532e-012
186
root  66.7233 19.152 0.297431 -49.355 86.397 -100.967
RightUpLeg  -60.8754 -0.642732 5.38904
RightLeg  119.628 6.37551 8.84572
RightFoot  -2.44166 0.825907 -8.79336
RightToes  1.86264e-009 -3.18055e-015 8.94531e-016
Spine  52.1196 -2.94878 2.3718
Spine1  -23.9948 -1.75766 2.8485
HEad  -54.1453 6.3084 4.15835
LeftShoulder1  0 -2.69403e-036 -1.28585e-037
LeftArm  1.98418 -57.6822 -79.9847
LeftForeArm  8.99916 -6.43704 6.51067
LeftHand  -1.71627 0.951789 30.0743
RightShoulder  -2.48481e-017 0 -8.08114e-019
RightArm  7.98477 17.2444 96.7046
RightForeArm  21.9948 11.981 -0.636487
RightHand  10.0387 -22.1633 -49.4259
LeftUpLeg  -36.821 -12.8924 1.56238
LeftLeg  88.0969 -13.4693 -20.6818
LeftFoot  20.5058 0.912517 -2.78772
LeftToes  -3.27418e-010 -1.10613e-010 -1.08532e-012
187
root  67.409 18.995 0.149497 -86.5461 86.8867 -135.769
RightUpLeg  -65.7839 -2.66017 5.8922
RightLeg  124.216 4.58125 10.1515
RightFoot  -2.72321 0.791849 -8.66487
RightToes  1.86264e-009 -3.18055e-015 8.94531e-016
Spine  52.7594 -3.6012 4.05756
Spine1  -22.5123 -1.59239 3.27208
HEad  -53.6059 5.23884 3.79836
LeftShoulder1  0 -2.69403e-036 -1.28585e-037
LeftArm  4.07224 -55.9705 -84.7693
LeftForeArm  9.68365 -6.22576 6.50471
LeftHand  -1.98106 0.636938 31.9502
RightShoulder  -2.48481e-017 0 -8.08114e-019
RightArm  10.6859 15.2355 93.9758
RightForeArm  19.2558 13.0848 -1.52093
RightHand  9.99165 -22.0894 -49.4169
LeftUpLeg  -32.0792 -16.1426 1.32451
LeftLeg  86.0603 -14.4206 -23.1232
LeftFoot  20.1806 1.38666 -4.39038
LeftToes  -3.27418e-010 -1.10613e-010 -1.08532e-012
188
root  68.1104 18.799 0.0491012 -124.551 85.865 -171.223
RightUpLeg  -69.4722 -4.68195 6.25472
RightLeg  126.931 3.15355 11.1096
RightFoot  1.29257 1.06846 -8.39148
RightToes  1.86264e-009 -3.18055e-015 8.94531e-016
Spine  53.2082 -4.38984 5.74365
Spine1  -21.053 -1.55334 4.10156
HEad  -52.7966 4.09912 3.3878
LeftShoulder1  0 -2.69403e-036 -1.28585e-037
LeftArm  5.9511 -53.9738 -90.047
LeftForeArm  10.866 -5.14159 6.52675
LeftHand  -2.22729 0.43503 34.0986
RightShoulder  -2.48481e-017 0 -8.08114e-019
RightArm  12.7821 12.8422 91.2618
RightForeArm  16.9072 13.9901 -2.36438
RightHand  10.14 -22.2355 -49.7255
LeftUpLeg  -27.1708 -19.6994 0.949571
LeftLeg  84.1183 -15.5091 -25.262
LeftFoot  20.1159 1.74842 -5.59748
LeftToes  -3.27418e-010 -1.10613e-010 -1.08532e-012
189
root  68.8588 18.5767 0.012309 -139.472 83.7706 175.79
RightUpLeg  -71.6812 -5.55298 6.45004
RightLeg  128.023 1.45854 12.7618
RightFoot  9.22117 1.50587 -7.6734
RightToes  1.86264e-009 -3.18055e-015 8.94531e-016
Spine  53.0704 -4.92891 7.46934
Spine1  -19.765 -1.2683 5.2089
HEad  -51.8916 2.75929 2.75938
LeftShoulder1  0 -2.69403e-036 -1.28585e-037
LeftArm  7.88579 -51.8347 -94.4394
LeftForeArm  11.205 -4.10553 6.07541
LeftHand  -2.42512 0.316746 35.9873
RightShoulder  -2.48481e-017 0 -8.08114e-019
RightArm  15.1674 10.273 88.7207
RightForeArm  14.4991 14.8948 -3.24529
RightHand  10.2451 -22.3585 -49.8892
LeftUpLeg  -22.9907 -22.4779 1.311
LeftLeg  82.265 -16.7755 -27.4636
LeftFoot  20.7335 2.16373 -6.83109
LeftToes  -3.27418e-010 -1.10613e-010 -1.08532e-012
190
root  69.6626 18.3387 0.0309219 -139.316 81.7264 176.814
RightUpLeg  -72.3957 -4.8822 6.44786
RightLeg  127.952 -1.3416 16.1284
RightFoot  16.3111 1.6834 -6.42702
RightToes  1.86264e-009 -3.18055e-015 8.94531e-016
Spine  52.3381 -5.13626 9.39511
Spine1  -18.8359 -0.610476 6.09767
HEad  -51.2609 1.273 2.09074
LeftShoulder1  0 -2.69403e-036 -1.28585e-037
LeftArm  9.69417 -49.5757 -97.6879
LeftForeArm  11.3169 -3.91704 5.31784
LeftHand  -2.61129 0.175964 37.491
RightShoulder  -2.48481e-017 0 -8.08114e-019
RightArm  20.7558 7.09902 86.539
RightForeArm  8.88405 16.6547 -5.96064
RightHand  9.65263 -21.8255 -48.4402
LeftUpLeg  -20.1061 -24.0583 2.87406
LeftLeg  80.44 -18.2636 -29.7518
LeftFoot  21.8193 2.76426 -8.47782
LeftToes  -3.27418e-010 -1.10613e-010 -1.08532e-012
